PathFileType	4	(X/Y/Z)	./resultDataOpenSim/trcMotMarkerGrf/sub09/qtm-04-08.trc
DataRate	CameraRate	NumFrames	NumMarkers	Units	OrigDataRate	OrigDataStartFrame	OrigNumFrames
250.000000	250.000000	14	24	m	250.000000	250	498
Frame#	Time	L.Toe.Tip			R.Toe.Tip			L.Ankle.Lat			R.Ankle.Lat			L.Ankle.Med			R.Ankle.Med			L.Heel			R.Heel			L.Knee.Lat			R.Knee.Lat			L.Knee.Med			R.Knee.Med			L.Thigh.Upper			R.Thigh.Upper			L.ASIS			R.ASIS			V.Sacral			L.Acromium			R.Acromium			C7			L.Elbow			R.Elbow			L.Wrist.Lat			R.Wrist.Lat
		X1	Y1	Z1	X2	Y2	Z2	X3	Y3	Z3	X4	Y4	Z4	X5	Y5	Z5	X6	Y6	Z6	X7	Y7	Z7	X8	Y8	Z8	X9	Y9	Z9	X10	Y10	Z10	X11	Y11	Z11	X12	Y12	Z12	X13	Y13	Z13	X14	Y14	Z14	X15	Y15	Z15	X16	Y16	Z16	X17	Y17	Z17	X18	Y18	Z18	X19	Y19	Z19	X20	Y20	Z20	X21	Y21	Z21	X22	Y22	Z22	X23	Y23	Z23	X24	Y24	Z24

250	0.996	0.16365787	-0.03427644	0.032425194	0.48807952	0.10075492	0.14794501	0.017762346	0.022514781	-0.01254864	0.34130328	0.11553986	0.16286109	0.04415142	0.039318295	0.081010604	0.36597289	0.15173152	0.072522628	-0.053452959	-0.00098356396	0.032749992	0.27870971	0.092180438	0.10505194	0.11533906	0.4258537	-0.071483982	0.45730922	0.54844587	0.21856562	0.12056711	0.42633208	0.053611327	0.46509888	0.53819646	0.090907695	0.18320851	0.84512126	-0.12099256	0.1939408	0.85705318	0.25072304	0.28193375	0.91938514	-0.062384278	0.27444114	0.93386316	0.17756479	0.11795403	0.9950588	0.053543924	0.33195209	1.3715182	-0.10323269	0.28076153	1.3895122	0.22152408	0.24193488	1.4368436	0.048342902	0.19845442	1.0213212	-0.18726499	0.084293338	1.0855977	0.29286469	0.43015482	0.87774842	-0.15163587	0.15532386	0.83031751	0.35362739
251	1	0.16375013	-0.034263184	0.032302676	0.50850635	0.10084839	0.14809467	0.01791724	0.023053104	-0.01225257	0.36095245	0.11226563	0.16269928	0.044592556	0.039777437	0.081216143	0.38529343	0.14897265	0.072334595	-0.053270967	-0.00014744153	0.033155155	0.29947365	0.087214878	0.10442145	0.11693001	0.42606348	-0.071429292	0.46426968	0.5492289	0.21856797	0.12259918	0.42650264	0.053621637	0.47205231	0.5386251	0.091092792	0.18792356	0.84463626	-0.12070553	0.19987691	0.85670915	0.25117238	0.28759904	0.91870905	-0.062149167	0.28042036	0.933275	0.17766023	0.12362065	0.99466139	0.0539801	0.3380613	1.3709089	-0.10313853	0.2873966	1.388835	0.22169267	0.24838379	1.4362059	0.048561931	0.20580297	1.019937	-0.18686198	0.090341869	1.0855606	0.29321221	0.43932494	0.87936602	-0.15066817	0.16037951	0.83017759	0.3545438
252	1.004	0.16379648	-0.034276276	0.032261403	0.52882046	0.1010291	0.14836919	0.018106793	0.023589857	-0.012029017	0.38059232	0.10922952	0.16258001	0.045003612	0.040216792	0.081377759	0.40465421	0.14634601	0.072122096	-0.053081754	0.00069524372	0.033479297	0.32043964	0.082500561	0.10369376	0.11861334	0.42624855	-0.071379246	0.47094324	0.54975556	0.21859029	0.1242332	0.42658034	0.053929465	0.47890954	0.53884869	0.091309959	0.19261901	0.8441029	-0.12039407	0.20581149	0.85630193	0.25164018	0.29315634	0.91798107	-0.061949079	0.28642675	0.93261945	0.17775791	0.12930088	0.99420677	0.054435894	0.34418088	1.3702541	-0.10304579	0.29406512	1.3881023	0.22186651	0.25483067	1.4355194	0.04877972	0.21317947	1.0185143	-0.18642796	0.096419051	1.0854322	0.29351291	0.44843978	0.88090679	-0.14969886	0.16552577	0.82996913	0.35542613
253	1.008	0.16382151	-0.034299341	0.032249021	0.54900318	0.1013564	0.14878338	0.018335364	0.024125376	-0.011890839	0.4002012	0.1064138	0.16246828	0.045412082	0.040635218	0.081484327	0.42401202	0.14386561	0.07188255	-0.052883914	0.001546123	0.033716748	0.34156146	0.078045841	0.10285478	0.12040152	0.42641075	-0.07134282	0.47737249	0.55001571	0.21868597	0.12557796	0.42659002	0.054436078	0.48567986	0.53885822	0.091568859	0.19727509	0.84353214	-0.12005268	0.21176007	0.85585372	0.25212681	0.29843428	0.91713923	-0.061918774	0.29246578	0.93190189	0.17785605	0.13498922	0.99370574	0.054915292	0.35031228	1.3695592	-0.10295317	0.30074062	1.3873196	0.22203755	0.26129523	1.4348074	0.049003725	0.22058447	1.0170606	-0.185971	0.10253075	1.0852213	0.2937927	0.45750397	0.88237769	-0.14872804	0.17074479	0.82969352	0.35626648
254	1.012	0.1638441	-0.034324126	0.032233767	0.56903822	0.10183865	0.14932487	0.018599841	0.024666735	-0.01183606	0.41983069	0.10377064	0.16229528	0.045833857	0.041051265	0.081539587	0.4433575	0.14156931	0.071622685	-0.052677029	0.002407993	0.033867594	0.36273466	0.073872692	0.10194706	0.12231788	0.42655597	-0.071320797	0.48364583	0.55006005	0.21884102	0.12708428	0.42661206	0.054834549	0.492357	0.53865399	0.091878195	0.20188822	0.84293016	-0.11968114	0.21772793	0.85537593	0.25262652	0.30345851	0.91618655	-0.062054959	0.29854264	0.9311221	0.17795481	0.14066902	0.99316964	0.055414673	0.35645987	1.3688267	-0.10286106	0.30741364	1.386492	0.22220094	0.2677942	1.4340761	0.049231878	0.2280145	1.0155859	-0.18550535	0.10868902	1.0849355	0.29408058	0.46651507	0.88377734	-0.14776214	0.17602494	0.82934232	0.35705772
255	1.016	0.16387103	-0.034348638	0.032209293	0.58893656	0.10243411	0.14994739	0.018886415	0.025223952	-0.011833089	0.43955227	0.10125813	0.16200714	0.04626197	0.041486689	0.081554363	0.46269114	0.13950488	0.071365057	-0.052460741	0.0032846364	0.033934239	0.38382835	0.070016916	0.10105838	0.1243888	0.42668977	-0.071309027	0.48988431	0.54995246	0.21900454	0.1290879	0.42668925	0.054926241	0.4989361	0.53824889	0.092221674	0.2064879	0.84230437	-0.11930678	0.22371293	0.85486335	0.25313443	0.30841398	0.9151877	-0.062231076	0.30465909	0.9302815	0.17804812	0.1463261	0.99259655	0.055927471	0.36263187	1.3680574	-0.10277501	0.31410199	1.3856205	0.22236215	0.27432479	1.4333158	0.049459887	0.23546748	1.0140931	-0.18504266	0.11490064	1.0845802	0.29439005	0.47546929	0.8850939	-0.14680695	0.18136579	0.82890607	0.35779705
256	1.02	0.16390197	-0.034372611	0.032178303	0.60872503	0.1030969	0.15058429	0.019181191	0.025795256	-0.01183668	0.4593266	0.098893172	0.16163852	0.04667821	0.041938441	0.081531751	0.4819865	0.13770582	0.071139257	-0.052233865	0.0041792976	0.033919697	0.40476207	0.066509204	0.10024952	0.12662625	0.42681058	-0.071310149	0.49614295	0.54970857	0.21918086	0.13149665	0.42678384	0.05481593	0.50541928	0.53766548	0.092564985	0.21113813	0.84166676	-0.11899061	0.22971914	0.85430325	0.25365131	0.31344228	0.91419674	-0.062348322	0.3108119	0.92938268	0.17812505	0.15196645	0.9919841	0.056456759	0.36883571	1.3672553	-0.10270239	0.32081273	1.384705	0.22252856	0.28087325	1.4325115	0.049687447	0.24294432	1.0125786	-0.18459039	0.12115149	1.0841643	0.29474569	0.48436835	0.8863187	-0.14585987	0.18677518	0.82838594	0.35848774
257	1.024	0.16393414	-0.034396329	0.032142026	0.62843066	0.10381113	0.15116144	0.019486935	0.026369507	-0.011841479	0.47901305	0.09673629	0.1612821	0.047072511	0.042382641	0.081462396	0.5011926	0.13617591	0.070964967	-0.05199464	0.0050936188	0.033823639	0.42552403	0.063363937	0.0995321	0.12902698	0.42691247	-0.07134613	0.50237493	0.54930594	0.2194247	0.13397169	0.42683107	0.054774832	0.5118083	0.5369303	0.092883327	0.21589084	0.84103005	-0.11877857	0.23576158	0.85368803	0.25417877	0.31855475	0.91322358	-0.062404653	0.31699838	0.92842955	0.17817873	0.15762717	0.99133258	0.057040656	0.37507253	1.3664274	-0.10264675	0.32753411	1.3837504	0.22269701	0.28744136	1.4316631	0.049921074	0.25044537	1.0110432	-0.18414805	0.12739408	1.0837081	0.29520971	0.49321534	0.88745245	-0.14491516	0.19225986	0.82779448	0.35913592
258	1.028	0.16396455	-0.034420474	0.032098887	0.64806129	0.10458883	0.15162289	0.01982122	0.026944701	-0.01189475	0.49854226	0.094804468	0.16096068	0.047453871	0.042806334	0.081331871	0.52025854	0.13489972	0.070842128	-0.051741621	0.0060304536	0.033641454	0.4461169	0.060586433	0.098901414	0.13160869	0.42699572	-0.0714589	0.50848085	0.54870349	0.21972801	0.13627317	0.42678797	0.054995927	0.51808815	0.53606523	0.093169888	0.22071073	0.84040005	-0.11862898	0.24185386	0.85301795	0.25471045	0.32370474	0.91226088	-0.062442617	0.32322046	0.92743127	0.17820715	0.16337211	0.99063811	0.057768825	0.38134055	1.3655767	-0.10260063	0.33426312	1.3827647	0.22285812	0.29404064	1.4307839	0.050161376	0.25796662	1.0094947	-0.18370596	0.1335743	1.083239	0.29585357	0.50200915	0.88849814	-0.14397213	0.19781987	0.82714377	0.35974741
259	1.032	0.16399241	-0.034445309	0.03204762	0.66758144	0.10545056	0.15194853	0.020196516	0.027532743	-0.012041296	0.51795426	0.093044361	0.16060336	0.047842216	0.043226873	0.081130973	0.53913338	0.13386698	0.07075379	-0.051474167	0.0069961038	0.033373078	0.46652862	0.058184905	0.098354286	0.13440066	0.42706864	-0.071677374	0.51435709	0.54784919	0.21997849	0.13842955	0.42664779	0.055442501	0.52422431	0.53507809	0.093426763	0.22548832	0.83977709	-0.1184245	0.24800044	0.85229759	0.25523137	0.32885961	0.91130634	-0.062490971	0.32948112	0.92639942	0.17820751	0.16924919	0.98990192	0.058720972	0.3876429	1.3646998	-0.10254627	0.34100817	1.3817542	0.22300832	0.30066232	1.4298826	0.050393671	0.26549922	1.0079403	-0.18324777	0.13969504	1.0827637	0.2966712	0.51074525	0.88945908	-0.14303361	0.20345221	0.82643649	0.36032691
260	1.036	0.16402153	-0.034470722	0.031992129	0.68691925	0.10641015	0.15212996	0.020610864	0.028144184	-0.012286376	0.53726928	0.091406361	0.16015219	0.04824971	0.043676388	0.080864498	0.55775141	0.13308209	0.070679762	-0.051192517	0.0079977452	0.033027491	0.48672951	0.056165078	0.097889354	0.13735539	0.42713836	-0.071965574	0.51992751	0.54670713	0.22005191	0.14063661	0.42644856	0.055896003	0.5301863	0.53396114	0.093655692	0.23015185	0.83916461	-0.11807519	0.25420547	0.85153443	0.25572714	0.33401558	0.91036125	-0.06255334	0.33577845	0.92534338	0.17817336	0.17522426	0.98913272	0.059837177	0.39398748	1.3637931	-0.10247014	0.34776929	1.380721	0.22315073	0.30728597	1.4289625	0.050615304	0.27303635	1.0063789	-0.18275144	0.14583284	1.082255	0.29754891	0.51941946	0.89034111	-0.14210026	0.20915581	0.8256726	0.36087634
261	1.04	0.16405978	-0.034496922	0.031944321	0.70599974	0.10747011	0.15213686	0.021056475	0.028778201	-0.012609575	0.55641137	0.089927641	0.15964858	0.04867321	0.04417079	0.080551731	0.57604081	0.13255051	0.07060725	-0.050895889	0.009041702	0.032616164	0.5066411	0.054510654	0.097511244	0.1403352	0.42720347	-0.072228901	0.52520031	0.54528682	0.21992597	0.14303269	0.42625707	0.056167767	0.53596955	0.53269922	0.09385075	0.23471754	0.83856714	-0.11755932	0.26047955	0.85073774	0.25619176	0.33918322	0.90942935	-0.062628164	0.34211022	0.92427377	0.17809825	0.18118787	0.98833311	0.060914952	0.40037906	1.3628593	-0.10237296	0.35453789	1.3796634	0.22329132	0.31391011	1.4280303	0.050856887	0.2805814	1.0047969	-0.18218233	0.1520719	1.0816794	0.29835945	0.52803205	0.89114981	-0.14116863	0.21493103	0.82485686	0.361394
262	1.044	0.1641132	-0.034524186	0.031915277	0.72476157	0.10862978	0.15191627	0.021528962	0.029432937	-0.012983235	0.57525374	0.088720197	0.15920204	0.049104437	0.044701502	0.080214181	0.59393989	0.13225973	0.070535526	-0.050580026	0.010134384	0.032148845	0.52613085	0.053181581	0.097232239	0.14323942	0.42725693	-0.072397334	0.53032818	0.54364593	0.21972684	0.14564123	0.42612571	0.056209944	0.54159256	0.53127812	0.094000044	0.23922985	0.83798355	-0.11687222	0.2668337	0.8499149	0.25662893	0.3443729	0.90852186	-0.062719522	0.34848091	0.9232043	0.17798126	0.18706027	0.98749997	0.061800293	0.40681431	1.3619062	-0.10226527	0.36131281	1.378581	0.22343762	0.32054598	1.4270877	0.05115036	0.28814919	1.0031694	-0.18148825	0.1584454	1.0810246	0.29905496	0.53658743	0.89188811	-0.14023335	0.22077637	0.82399336	0.36187727
263	1.048	0.16417915	-0.034552717	0.031901361	0.74315338	0.10990101	0.15142123	0.022029586	0.030116009	-0.013380612	0.59370808	0.087863385	0.15888059	0.04954316	0.04525601	0.079864382	0.6113927	0.13218011	0.070480105	-0.050238406	0.011281192	0.031636513	0.5450884	0.05213171	0.097051897	0.14608969	0.42729495	-0.072475842	0.53554248	0.54185575	0.2196442	0.14847615	0.42607259	0.056030663	0.54708404	0.52968923	0.094095328	0.24371312	0.83740939	-0.11601373	0.27327485	0.84906921	0.25704956	0.34959327	0.90765079	-0.062827409	0.35489673	0.92214432	0.17782711	0.19285291	0.98663859	0.062507485	0.41328648	1.3609421	-0.10215635	0.36810022	1.3774781	0.22359376	0.32719922	1.4261199	0.051478893	0.29575403	1.0014781	-0.18062894	0.16493852	1.0802972	0.29965912	0.54508684	0.89255635	-0.13929269	0.22668843	0.82308123	0.36232542
